HIERARCHY
ROOT Hips
{
	OFFSET -0.001795 -0.223333 0.028219
	CHANNELS 6 Xposition Yposition Zposition Zrotation Yrotation Xrotation 
	JOINT LeftUpLeg
	{
		OFFSET 0.069520 -0.091406 -0.006815
		CHANNELS 3 Zrotation Yrotation Xrotation
		JOINT LeftLeg
		{
			OFFSET 0.034277 -0.375199 -0.004496
			CHANNELS 3 Zrotation Yrotation Xrotation
			JOINT LeftFoot
			{
				OFFSET -0.013596 -0.397961 -0.043693
				CHANNELS 3 Zrotation Yrotation Xrotation
				JOINT LeftToe
				{
					OFFSET 0.026358 -0.055791 0.119288
					CHANNELS 3 Zrotation Yrotation Xrotation
					End Site
					{
						OFFSET 0.000000 0.000000 0.000000
					}
				}
			}
		}
	}
	JOINT RightUpLeg
	{
		OFFSET -0.067670 -0.090522 -0.004320
		CHANNELS 3 Zrotation Yrotation Xrotation
		JOINT RightLeg
		{
			OFFSET -0.038290 -0.382569 -0.008850
			CHANNELS 3 Zrotation Yrotation Xrotation
			JOINT RightFoot
			{
				OFFSET 0.015774 -0.398415 -0.042312
				CHANNELS 3 Zrotation Yrotation Xrotation
				JOINT RightToe
				{
					OFFSET -0.025372 -0.048144 0.123348
					CHANNELS 3 Zrotation Yrotation Xrotation
					End Site
					{
						OFFSET 0.000000 0.000000 0.000000
					}
				}
			}
		}
	}
	JOINT Spine
	{
		OFFSET -0.002533 0.108963 -0.026696
		CHANNELS 3 Zrotation Yrotation Xrotation
		JOINT Spine1
		{
			OFFSET 0.005487 0.135180 0.001092
			CHANNELS 3 Zrotation Yrotation Xrotation
			JOINT Spine2
			{
				OFFSET 0.001457 0.052922 0.025425
				CHANNELS 3 Zrotation Yrotation Xrotation
				JOINT Neck
				{
					OFFSET -0.002778 0.213870 -0.042857
					CHANNELS 3 Zrotation Yrotation Xrotation
					JOINT Head
					{
						OFFSET 0.005152 0.064970 0.051349
						CHANNELS 3 Zrotation Yrotation Xrotation
						End Site
						{
							OFFSET 0.000000 0.000000 0.000000
						}
					}
				}
				JOINT LeftShoulder
				{
					OFFSET 0.078845 0.121749 -0.034090
					CHANNELS 3 Zrotation Yrotation Xrotation
					JOINT LeftArm
					{
						OFFSET 0.090977 0.030469 -0.008868
						CHANNELS 3 Zrotation Yrotation Xrotation
						JOINT LeftForeArm
						{
							OFFSET 0.259612 -0.012772 -0.027456
							CHANNELS 3 Zrotation Yrotation Xrotation
							JOINT LeftHand
							{
								OFFSET 0.249234 0.008986 -0.001171
								CHANNELS 3 Zrotation Yrotation Xrotation
								End Site
								{
									OFFSET 0.000000 0.000000 0.000000
								}
							}
						}
					}
				}
				JOINT RightShoulder
				{
					OFFSET -0.081759 0.118833 -0.038615
					CHANNELS 3 Zrotation Yrotation Xrotation
					JOINT RightArm
					{
						OFFSET -0.096012 0.032551 -0.009143
						CHANNELS 3 Zrotation Yrotation Xrotation
						JOINT RightForeArm
						{
							OFFSET -0.253742 -0.013329 -0.021401
							CHANNELS 3 Zrotation Yrotation Xrotation
							JOINT RightHand
							{
								OFFSET -0.255298 0.007772 -0.005559
								CHANNELS 3 Zrotation Yrotation Xrotation
								End Site
								{
									OFFSET 0.000000 0.000000 0.000000
								}
							}
						}
					}
				}
			}
		}
	}
}
MOTION
Frames: 18
Frame Time: 0.050000
0.005581 0.958192 0.003681 0.555499 -8.583476 6.844381 5.532677 -0.386921 -8.435669 -3.262590 0.450222 6.184738 0.374694 4.649681 14.159611 0.000000 0.000000 0.000000 -2.447696 0.934057 -9.910217 -3.301043 0.782627 6.301064 0.991931 -4.537496 12.401393 0.000000 0.000000 0.000000 5.044167 0.460984 -6.380421 -0.278080 0.152951 -0.036446 -10.988141 -1.656781 -0.242250 5.384098 -2.537635 -13.673922 0.000000 0.000000 0.000000 -17.450123 -11.199079 4.859164 -36.413339 -33.300364 5.583015 37.290958 -58.350217 -17.867803 0.000000 0.000000 0.000000 20.456868 -3.803939 -5.065704 56.841865 -3.833064 -6.670409 24.604149 42.784550 10.114606 0.000000 0.000000 0.000000 
0.007184 0.958425 0.002528 0.452553 -9.698106 6.440961 5.434346 -0.376955 -8.635480 -3.383470 0.517325 7.752464 1.026502 5.433336 13.584677 0.000000 0.000000 0.000000 -2.364288 0.939684 -9.898378 -3.408279 0.846281 6.843448 1.272860 -3.929853 11.869566 0.000000 0.000000 0.000000 5.476139 0.463888 -6.109664 -0.305547 0.165782 -0.217080 -10.650026 -2.984906 -0.293948 4.131848 -1.979241 -13.156318 0.000000 0.000000 0.000000 -15.747983 -12.451677 5.876654 -32.366243 -39.291975 6.405479 46.471641 -49.756647 -18.931363 0.000000 0.000000 0.000000 19.891681 -3.748144 -5.419115 56.757119 -4.094517 -6.732190 27.228477 46.450721 11.804941 0.000000 0.000000 0.000000 
0.008635 0.958346 0.001376 0.577315 -10.967035 6.351577 4.982163 -0.395039 -8.748247 -3.477539 0.575928 8.342412 2.006228 6.834290 13.478771 0.000000 0.000000 0.000000 -2.391616 0.952979 -9.978990 -3.772510 0.925617 7.091038 1.541746 -3.046277 10.749892 0.000000 0.000000 0.000000 5.530053 0.479095 -6.118768 -0.036089 0.037911 -0.592396 -10.504923 -3.844871 -0.117854 3.295878 -1.638417 -12.616829 0.000000 0.000000 0.000000 -13.534388 -13.594596 6.585730 -27.656735 -43.898563 6.320866 46.822281 -41.202504 -15.160532 0.000000 0.000000 0.000000 19.261508 -4.019272 -5.802812 56.740290 -4.414466 -6.882586 31.022982 49.573944 14.080256 0.000000 0.000000 0.000000 
0.009762 0.958154 0.000280 0.484057 -12.207439 6.095103 5.029806 -0.376496 -9.035213 -3.661715 0.690264 9.873440 2.384359 7.207316 12.855138 0.000000 0.000000 0.000000 -2.295484 0.976136 -10.140799 -3.977317 1.030708 7.824545 1.906145 -1.968694 9.785523 0.000000 0.000000 0.000000 5.813447 0.494616 -6.027607 -0.019736 0.032869 -0.457583 -10.177743 -4.738380 -0.256888 2.455251 -1.212437 -12.967127 0.000000 0.000000 0.000000 -12.039755 -13.829823 6.811252 -23.465998 -46.612204 5.671791 44.928059 -36.754611 -12.488884 0.000000 0.000000 0.000000 18.737533 -4.349451 -6.206540 56.698856 -4.644959 -6.982011 35.857136 52.058123 16.852703 0.000000 0.000000 0.000000 
0.010330 0.957947 -0.000767 0.272425 -13.376279 6.029497 4.987219 -0.357914 -9.010190 -3.639732 0.736807 10.395397 3.139636 8.268890 12.530067 0.000000 0.000000 0.000000 -1.980172 1.017359 -10.420569 -4.358990 1.140456 8.265968 2.380370 -0.891821 9.326033 0.000000 0.000000 0.000000 5.772086 0.475290 -5.759486 0.409519 -0.166620 -0.685226 -9.920484 -5.249354 -0.368488 2.145295 -1.115966 -12.803301 0.000000 0.000000 0.000000 -11.304065 -14.171954 7.081541 -20.390827 -47.077845 4.761557 43.490184 -34.902581 -11.212307 0.000000 0.000000 0.000000 18.586162 -4.575000 -6.547679 56.501323 -4.696288 -6.957024 40.129821 53.650029 19.323819 0.000000 0.000000 0.000000 
0.010503 0.957969 -0.001583 0.112978 -14.729223 5.808692 5.003353 -0.324573 -8.837642 -3.712324 0.825105 11.083304 3.737915 9.082364 12.235012 0.000000 0.000000 0.000000 -1.830661 1.042803 -10.574920 -4.417304 1.179836 8.512176 2.860702 -0.077175 9.319318 0.000000 0.000000 0.000000 5.756741 0.463588 -5.520288 0.547671 -0.226491 -0.571498 -9.711012 -5.487464 -0.599942 1.859568 -0.978599 -13.417752 0.000000 0.000000 0.000000 -10.686346 -13.939461 7.028144 -19.277198 -46.724312 4.369384 42.708105 -34.422341 -10.677403 0.000000 0.000000 0.000000 18.195119 -4.662956 -6.692431 56.838294 -4.644924 -6.999760 42.718137 54.096842 20.568125 0.000000 0.000000 0.000000 
0.010338 0.957999 -0.002081 -0.097998 -15.443090 5.681113 5.163174 -0.283646 -8.400878 -3.838854 0.863015 10.735872 4.241426 9.859332 12.480401 0.000000 0.000000 0.000000 -1.578782 1.052082 -10.578865 -4.535272 1.234295 8.804013 3.140290 0.642910 8.968861 0.000000 0.000000 0.000000 5.776345 0.455639 -5.369588 0.626614 -0.261354 -0.545155 -9.498869 -5.663537 -0.611605 2.039324 -1.124305 -13.607798 0.000000 0.000000 0.000000 -11.010994 -13.475541 6.964705 -19.311010 -45.477229 4.127494 43.770045 -35.528927 -11.302142 0.000000 0.000000 0.000000 18.059490 -5.109988 -6.995841 56.953745 -5.042702 -7.235785 44.609450 53.608200 21.152322 0.000000 0.000000 0.000000 
0.010078 0.958135 -0.002227 -0.241858 -16.530661 5.309982 5.352687 -0.222435 -7.642903 -3.920126 0.897515 10.326293 4.456924 10.131550 13.099854 0.000000 0.000000 0.000000 -1.549991 1.025911 -10.302867 -4.410231 1.220860 8.841811 3.600081 1.544649 8.857672 0.000000 0.000000 0.000000 5.653811 0.450389 -5.225019 0.806655 -0.339448 -0.398989 -9.487163 -5.280138 -0.564641 2.184599 -1.238413 -13.472660 0.000000 0.000000 0.000000 -11.373664 -12.941124 6.794978 -19.764328 -44.229785 4.004942 44.926072 -36.128089 -11.838390 0.000000 0.000000 0.000000 17.787280 -5.250627 -7.015006 56.990506 -4.930865 -7.225999 44.650855 52.804941 20.730220 0.000000 0.000000 0.000000 
0.009822 0.958328 -0.002220 -0.382666 -17.036495 5.114903 5.456288 -0.188163 -7.109958 -3.863475 0.883810 10.027682 4.541190 10.219453 13.156513 0.000000 0.000000 0.000000 -1.456814 1.006740 -10.101254 -4.403319 1.237101 8.978076 3.856965 2.219434 8.592481 0.000000 0.000000 0.000000 5.605177 0.454832 -5.216380 0.706286 -0.292135 -0.337343 -9.263278 -5.267367 -0.458942 2.305533 -1.329095 -13.743213 0.000000 0.000000 0.000000 -12.102408 -12.369568 6.700503 -20.331602 -42.632413 3.812685 47.222932 -36.670313 -12.714912 0.000000 0.000000 0.000000 17.626967 -5.457911 -7.128928 57.093863 -4.936563 -7.282453 43.218333 51.963774 19.526846 0.000000 0.000000 0.000000 
0.009612 0.958605 -0.002281 -0.648941 -17.842305 4.956433 5.752197 -0.126709 -6.406798 -3.724831 0.836879 9.291730 4.446975 9.999026 13.860447 0.000000 0.000000 0.000000 -1.357808 1.005654 -10.054236 -4.580826 1.294199 9.184610 4.745300 3.962782 8.662429 0.000000 0.000000 0.000000 5.499989 0.474249 -5.328083 0.706356 -0.295746 -0.491868 -8.938958 -4.980101 -0.059784 2.711882 -1.623130 -13.538632 0.000000 0.000000 0.000000 -12.160394 -11.728225 6.454250 -20.711838 -41.325144 3.627375 48.510293 -36.345798 -12.904097 0.000000 0.000000 0.000000 17.008327 -5.310079 -6.911999 57.018111 -4.665096 -7.233661 42.415612 51.401185 18.817904 0.000000 0.000000 0.000000 
0.009544 0.958973 -0.002458 -0.999623 -18.239998 4.996832 6.119372 -0.080149 -6.149605 -3.608912 0.814844 9.187897 4.258160 9.639310 13.752502 0.000000 0.000000 0.000000 -1.098726 1.012215 -10.060484 -4.743606 1.321432 9.173795 5.391657 5.065627 8.953786 0.000000 0.000000 0.000000 5.552241 0.518293 -5.645217 0.453949 -0.181392 -0.538760 -8.523640 -4.715548 0.473606 2.861119 -1.731973 -13.803742 0.000000 0.000000 0.000000 -12.195190 -11.108615 6.187434 -21.572210 -40.555380 3.668898 49.657983 -36.354168 -13.196620 0.000000 0.000000 0.000000 16.502643 -5.470118 -6.840978 57.295773 -3.936079 -7.039372 41.260463 51.321544 18.201146 0.000000 0.000000 0.000000 
0.009591 0.959191 -0.002666 -1.304565 -19.114930 5.018052 6.112715 -0.053364 -5.745326 -3.462676 0.779460 8.680109 5.064468 10.856355 14.339766 0.000000 0.000000 0.000000 -0.938633 1.019917 -10.083772 -4.891538 1.357744 9.242344 6.130646 6.591180 8.918253 0.000000 0.000000 0.000000 5.480667 0.551684 -5.870428 0.541077 -0.226530 -0.742543 -8.303945 -3.933086 0.799187 3.498343 -2.127329 -13.658675 0.000000 0.000000 0.000000 -12.153830 -10.453781 5.829727 -23.341238 -38.818321 3.743866 50.294974 -37.770332 -13.952959 0.000000 0.000000 0.000000 15.850972 -5.603653 -6.651496 57.272538 -2.923396 -6.640898 40.653384 51.465519 18.015073 0.000000 0.000000 0.000000 
0.009802 0.959370 -0.002751 -1.596096 -19.435464 5.000022 6.267423 -0.019746 -5.210596 -3.330923 0.731840 8.140977 5.197131 11.031759 14.163929 0.000000 0.000000 0.000000 -0.655401 1.015989 -10.001247 -4.983945 1.367885 9.190004 6.421615 7.007531 9.112231 0.000000 0.000000 0.000000 5.619749 0.557924 -5.830403 0.347554 -0.147303 -0.951948 -8.158704 -3.616133 1.021945 4.168245 -2.558038 -13.374082 0.000000 0.000000 0.000000 -12.451784 -9.791194 5.545198 -25.339426 -36.559995 3.681749 49.395782 -40.695565 -14.809116 0.000000 0.000000 0.000000 15.148796 -5.877985 -6.535468 57.441291 -1.965953 -6.302876 41.018041 52.954266 18.839411 0.000000 0.000000 0.000000 
0.010184 0.959472 -0.002662 -1.721941 -20.003635 5.071265 6.310655 -0.003375 -5.108102 -3.392451 0.747299 7.870055 5.600727 11.617620 14.789098 0.000000 0.000000 0.000000 -0.667161 1.035203 -10.158035 -4.782287 1.354146 9.344915 6.542662 7.274642 9.038939 0.000000 0.000000 0.000000 5.692225 0.583192 -5.969837 0.189918 -0.078749 -1.039781 -8.043314 -3.225837 0.973962 4.593238 -2.841040 -12.938287 0.000000 0.000000 0.000000 -13.325984 -8.901892 5.201137 -27.713484 -33.503109 3.433464 47.592788 -45.079067 -15.901359 0.000000 0.000000 0.000000 14.553461 -6.292674 -6.507342 56.891701 -1.233265 -5.921158 43.122560 55.096339 20.921693 0.000000 0.000000 0.000000 
0.010571 0.959524 -0.002591 -1.855318 -20.515750 5.195217 6.329731 0.018947 -4.594572 -3.338748 0.701195 6.831550 5.864906 11.971161 15.269652 0.000000 0.000000 0.000000 -0.673190 1.029335 -10.104974 -4.651125 1.279636 8.927161 6.823252 7.637588 9.238309 0.000000 0.000000 0.000000 5.788695 0.598038 -6.019847 0.148281 -0.055808 -0.975899 -8.092917 -3.311956 0.616482 5.107543 -3.182484 -12.607028 0.000000 0.000000 0.000000 -14.362141 -7.559883 4.696142 -30.063458 -30.619360 3.110179 45.526431 -49.555832 -16.680521 0.000000 0.000000 0.000000 14.129533 -6.632103 -6.561961 56.014521 -0.212807 -5.318700 45.031425 56.556926 22.563423 0.000000 0.000000 0.000000 
0.010957 0.959603 -0.002811 -1.941447 -20.768918 5.176550 6.459953 0.046572 -4.114343 -3.096719 0.624955 6.131943 5.304670 11.045940 15.431945 0.000000 0.000000 0.000000 -0.507465 1.020606 -10.011200 -4.527184 1.252255 8.865594 6.496087 7.065125 9.040433 0.000000 0.000000 0.000000 5.766379 0.581439 -5.879918 0.232810 -0.106270 -1.263302 -8.355451 -3.630890 0.659571 5.342114 -3.438186 -11.492071 0.000000 0.000000 0.000000 -15.543971 -7.085514 4.689612 -30.391880 -29.367629 2.748793 43.773674 -51.265438 -16.450818 0.000000 0.000000 0.000000 14.093941 -6.575402 -6.588275 55.406225 -0.166358 -5.218734 47.711639 57.123507 24.255972 0.000000 0.000000 0.000000 
0.011339 0.959860 -0.003528 -1.877729 -20.537741 5.349092 6.502827 0.035190 -4.422682 -3.040546 0.604245 6.010457 4.932298 10.478742 15.810624 0.000000 0.000000 0.000000 -0.631656 1.044096 -10.221699 -4.311375 1.196481 8.701913 6.367505 6.536408 9.351138 0.000000 0.000000 0.000000 5.636560 0.620071 -6.270203 0.225063 -0.085687 -0.898356 -8.416033 -4.265447 0.117326 5.680575 -3.661778 -11.143674 0.000000 0.000000 0.000000 -15.426829 -7.238533 4.813935 -29.974380 -30.512587 3.020459 44.147441 -50.691396 -16.371162 0.000000 0.000000 0.000000 14.255893 -6.375607 -6.616763 54.260148 -0.038739 -4.909467 48.581336 56.470878 24.263632 0.000000 0.000000 0.000000 
0.011760 0.960139 -0.004615 -2.058273 -20.150630 5.347192 6.582687 0.038235 -4.269553 -2.838519 0.541590 5.614470 4.877931 10.440930 15.726325 0.000000 0.000000 0.000000 -0.302565 1.031910 -10.076761 -4.223518 1.165562 8.562988 5.898717 5.544974 9.373772 0.000000 0.000000 0.000000 5.489813 0.586180 -6.084926 0.626833 -0.264505 -0.831521 -8.336186 -5.091766 -0.042205 5.452184 -3.594812 -10.316854 0.000000 0.000000 0.000000 -14.702857 -7.661832 5.054056 -27.446392 -33.519150 3.338573 46.349373 -47.643290 -16.140921 0.000000 0.000000 0.000000 14.898768 -5.380326 -6.506345 52.932423 0.682069 -4.271623 46.198708 54.364023 21.678946 0.000000 0.000000 0.000000 
